<svg xmlns="http://www.w3.org/2000/svg" viewBox="0 0 285.83 197.96"><defs><style>.a{fill:#fff;}.b{fill:#374049;}</style></defs><polygon class="a" points="31.49 180.75 43.49 180.94 43.49 12.56 31.49 11.38 31.49 180.75"/><polygon class="a" points="15.62 180.5 28.49 180.71 28.49 19.59 15.62 19.27 15.62 180.5"/><polygon class="a" points="242.49 180.94 254.49 180.75 254.49 11.38 242.49 12.54 242.49 180.94"/><polygon class="a" points="257.49 19.59 257.49 180.71 270.24 180.5 270.24 19.27 257.49 19.59"/><rect class="a" x="46.48" y="4.63" width="0.01" height="176.42"/><path class="b" d="M46.48,4.63V181.05h0V4.63Z"/><path class="b" d="M284.89,20.84H274.24V18.29a3.08,3.08,0,0,0-.91-2.16,3,3,0,0,0-2.19-.87l-11.27.27V10.16a3,3,0,0,0-3-3l-.34,0L245.5,8.23V3.05a3,3,0,0,0-1.09-2.3,3,3,0,0,0-2.47-.7l-99,18.19L43.9.05a3,3,0,0,0-2.47.67,3,3,0,0,0-1.09,2.33V8.23l-11-1.08A3,3,0,0,0,26,9.8c0,.12,0,.23,0,.35v5.37l-11.27-.27a3,3,0,0,0-3.1,2.91V20.8H1a1,1,0,0,0-1,1V193.74a1,1,0,0,0,.94,1.06H125.59v2.1a1,1,0,0,0,.94,1.06H159.2a1,1,0,0,0,1-1V194.8H284.83a1,1,0,0,0,1-1V21.9A1,1,0,0,0,284.89,20.84ZM28.49,180.71l-12.87-.2V19.28l12.87.31Zm15,.24-12-.19V11.39l12,1.18Zm97.44,1.54h0l-94.43-1.44h0V4.63h0l88.17,16.21L140.92,22h0v6H106.19v72.86h-38l72.76,72.76Zm98.56-1.44h0l-94.55,1.49v-8.93l72.71-72.72h-38V28H144.93V22l6.26-1.15L239.48,4.66h0Zm15-.24-12,.19V12.55l12-1.17Zm15.75-.25-12.75.2V19.59l12.75-.31Z"/><polygon class="a" points="239.48 4.66 239.48 181.05 144.93 182.54 144.93 173.61 217.64 100.89 179.62 100.89 179.62 28.03 144.93 28.03 144.93 22.04 151.19 20.89 239.48 4.66"/><polygon class="a" points="106.19 100.89 68.17 100.89 140.93 173.65 140.93 179.96 140.92 179.96 140.92 182.49 46.49 181.05 46.49 4.63 134.66 20.84 140.92 21.99 140.92 24.96 140.93 24.96 140.93 28.03 106.19 28.03 106.19 100.89"/><path class="a" d="M167.85,114.07A24.84,24.84,0,0,1,163,129.53q-4.87,6.45-14.64,8.58v13H136.17V138.61a44.74,44.74,0,0,1-11.58-3.07,34.23,34.23,0,0,1-10.45-6.44l8-12.4a42.09,42.09,0,0,0,9.08,5.45,22.53,22.53,0,0,0,8.82,1.81q5.26,0,7.7-2.12t2.44-6.51a7.2,7.2,0,0,0-2.44-5.51,31.76,31.76,0,0,0-6.13-4.32q-3.7-2.07-8-4.14a43.86,43.86,0,0,1-7.95-4.94,25.91,25.91,0,0,1-6.13-6.76,17.49,17.49,0,0,1-2.45-9.51q0-9.27,5.07-15.34t14-7.82V44.09h12.15V56.74a27.47,27.47,0,0,1,10.51,3.63A38.68,38.68,0,0,1,167,67L157.7,77.52a28.68,28.68,0,0,0-6.51-4.7,15.74,15.74,0,0,0-7.13-1.56q-4.51,0-6.89,1.88t-2.37,6.13a6.4,6.4,0,0,0,2.44,5.07,31.38,31.38,0,0,0,6.13,3.94q3.69,1.89,7.95,3.88a42.34,42.34,0,0,1,8,4.89A25,25,0,0,1,165.4,104,19.28,19.28,0,0,1,167.85,114.07Z"/></svg>