<svg xmlns="http://www.w3.org/2000/svg" viewBox="0 0 285.85 197.91"><defs><style>.a{fill:#fff}</style></defs><path class="a" d="M28.49 19.54v161.12l-12.87-.2V19.23l12.87.31zM43.49 12.52V180.9l-12-.19V11.34l12 1.18zM254.49 11.33v169.38l-12 .19V12.5l12-1.17zM270.24 19.23v161.23l-12.75.2V19.54l12.75-.31zM151.19 20.79l-6.26 1.15v6.3a74.59 74.59 0 0 1 0 149.15v5.05h1.56l93-1.47V4.56zM140.93 182.42v-5.06a74.59 74.59 0 0 1 0-149.09v-6.33l-6.26-1.15L46.49 4.58V181l94.44 1.49z"/><path class="a" d="M189.81 56.58a65.42 65.42 0 0 0-89.06-3.14l18.07 18.07a21.53 21.53 0 0 1 2-3q5.4-6.66 15.12-8.79V45.9h14.96v13.6a31.82 31.82 0 0 1 11.27 4 41.76 41.76 0 0 1 8.83 7.19l-11.3 13.07a31.35 31.35 0 0 0-6.86-4.8 15.83 15.83 0 0 0-7-1.6q-4.28 0-6.4 1.47c-1.42 1-2.14 2.79-2.14 5.46a5.4 5.4 0 0 0 2.54 4.4 40.65 40.65 0 0 0 6.4 3.73l8.26 4a44.86 44.86 0 0 1 8.27 5.2 26.59 26.59 0 0 1 6.39 7.33 19.71 19.71 0 0 1 2.53 10.26 32.7 32.7 0 0 1-.34 4.83l21.6 21.6a65.46 65.46 0 0 0-3.14-89.06zM115.66 81.45L94.2 60a65.36 65.36 0 0 0 92.2 92.21L168 133.79a22.5 22.5 0 0 1-1.43 2.21q-5.15 7.08-15.67 9.6v14.13H136V146.4a50.6 50.6 0 0 1-12.2-3.14 36.72 36.72 0 0 1-11.52-7l9.87-15.46a45.93 45.93 0 0 0 9.79 5.73 23.07 23.07 0 0 0 8.6 1.73c3.37 0 5.77-.59 7.19-1.8s2.14-3.08 2.14-5.66a6.05 6.05 0 0 0-2.53-4.73 37.31 37.31 0 0 0-6.44-4.07q-3.85-2-8.26-4.2a48 48 0 0 1-8.26-5.27 27.26 27.26 0 0 1-6.4-7.2 18.72 18.72 0 0 1-2.53-10 35 35 0 0 1 .21-3.9z"/><path d="M284.83 20.79h-10.59v-2.55a3 3 0 0 0-.91-2.16 2.93 2.93 0 0 0-2.19-.87l-11.27.27v-5.37a3 3 0 0 0-3.32-3L245.5 8.18V3a3 3 0 0 0-1.08-2.3 3.06 3.06 0 0 0-2.48-.7l-99 18.19L43.9 0a3 3 0 0 0-2.47.67A3 3 0 0 0 40.35 3v5.18l-11-1.08a3 3 0 0 0-3.33 3v5.37l-11.27-.27a3 3 0 0 0-3.09 3v2.55H1a1 1 0 0 0-1 1.06v171.88a1 1 0 0 0 1 1.06h124.6v2.1a1 1 0 0 0 1 1.06h32.6a1 1 0 0 0 1-1.06v-2.1h124.63a1 1 0 0 0 1-1.06V21.85a1 1 0 0 0-1-1.06zM28.49 180.66l-12.87-.2V19.23l12.87.31zm15 .24l-12-.19V11.34l12 1.18zm53.85-31.85A65.46 65.46 0 0 1 94.2 60l21.46 21.47a35 35 0 0 0-.21 3.9 18.72 18.72 0 0 0 2.53 10 27.26 27.26 0 0 0 6.4 7.2 48 48 0 0 0 8.26 5.27Q137 110 140.9 112a37.31 37.31 0 0 1 6.41 4.06 6.05 6.05 0 0 1 2.53 4.73c0 2.58-.71 4.46-2.14 5.66s-3.82 1.8-7.19 1.8a23.07 23.07 0 0 1-8.6-1.73 45.93 45.93 0 0 1-9.79-5.73l-9.87 15.46a36.72 36.72 0 0 0 11.52 7A50.6 50.6 0 0 0 136 146.4v13.33h14.9V145.6q10.53-2.53 15.67-9.6a22.5 22.5 0 0 0 1.43-2.21l18.4 18.4a65.46 65.46 0 0 1-89.06-3.14zm74-25a32.7 32.7 0 0 0 .34-4.83 19.71 19.71 0 0 0-2.52-10.22 26.59 26.59 0 0 0-6.39-7.33 44.86 44.86 0 0 0-8.27-5.2l-8.26-4a40.65 40.65 0 0 1-6.4-3.73 5.4 5.4 0 0 1-2.54-4.4c0-2.67.72-4.49 2.14-5.46s3.55-1.47 6.4-1.47a15.83 15.83 0 0 1 7 1.6 31.35 31.35 0 0 1 6.86 4.8L171 70.69a41.76 41.76 0 0 0-8.86-7.19 31.82 31.82 0 0 0-11.27-4V45.9H136v13.87q-9.72 2.13-15.12 8.79a21.53 21.53 0 0 0-2 3l-18.13-18.12a65.36 65.36 0 0 1 92.2 92.2zM46.49 181V4.58l88.18 16.21 6.26 1.15v6.33a74.59 74.59 0 0 0 0 149.09v5.08zm193 0l-94.56 1.49v-5.05a74.59 74.59 0 0 0 0-149.15v-6.3l6.26-1.15 88.3-16.23zm15-.24l-12 .19V12.5l12-1.17zm15.75-.25l-12.75.2V19.54l12.75-.31z" fill="#374049"/></svg>